<svg width="52" height="65" viewBox="0 0 52 65" fill="none" xmlns="http://www.w3.org/2000/svg">
<ellipse cx="26" cy="56.2105" rx="26" ry="8.21053" fill="#F28C03" fill-opacity="0.3"/>
<ellipse cx="26" cy="56.2105" rx="12.3158" ry="2.73684" fill="#F28C03"/>
<rect x="3" width="46.5263" height="43.7895" rx="21.8947" fill="#F28C03"/>
<path d="M26 53.4737L17.7044 39.1053L34.2956 39.1053L26 53.4737Z" fill="#F28C03"/>
<path d="M29.185 19.1401L26.7515 18.0404L24.4282 19.137L24.9124 21.2474C25.1967 22.2508 26.1999 23.1256 26.7913 23.541C27.2936 23.2094 28.3618 22.3887 28.652 21.2476L29.185 19.1401ZM27.4348 20.6037L27.5118 21.3858L26.7918 21.071L26.0718 21.3861L26.1486 20.6038L25.6264 20.0163L26.3941 19.8477L26.7915 19.1697L27.1891 19.8476L27.9566 20.016L27.4348 20.6037Z" fill="white"/>
<path d="M35.8711 18.8909C35.6429 18.1831 35.1256 17.5966 34.4519 17.2817L27.9529 14.2451C27.2389 13.9114 26.418 13.9077 25.701 14.2349L19.0969 17.2487C18.397 17.5682 17.8669 18.1735 17.6427 18.9096C17.4186 19.6456 17.5212 20.4437 17.9251 21.1003L18.9498 22.756L24.4633 22.7559C24.2069 22.3878 23.9909 21.9752 23.8661 21.5259L23.8601 21.5021L23.1783 18.5299L26.7416 16.848L30.4567 18.5269L29.7014 21.5138C29.5841 21.9749 29.3804 22.39 29.1361 22.7558L34.6915 22.7555L35.6589 21.0261C36.022 20.377 36.0993 19.5987 35.8711 18.8909Z" fill="white"/>
<path d="M26.7685 24.8019C26.7685 24.8019 25.9834 24.3327 25.434 23.8384L19.3593 23.8386V25.3127L34.3181 25.3122L34.3035 23.8381L28.179 23.8384C27.6007 24.3524 26.7685 24.8019 26.7685 24.8019Z" fill="white"/>
<path d="M26.8407 30.2533C29.9993 30.2533 32.8351 28.7208 34.0697 26.3947L19.612 26.3952C20.8467 28.721 23.6825 30.2533 26.8407 30.2533Z" fill="white"/>
</svg>
