<svg width="25" height="25" viewBox="0 0 25 25" fill="none" xmlns="http://www.w3.org/2000/svg">
<path d="M14.5775 9.99999H15.4108C15.6412 9.99999 15.8275 9.81374 15.8275 9.58332C15.8275 9.35291 15.6412 9.16666 15.4108 9.16666H14.5775C14.3471 9.16666 14.1608 9.35291 14.1608 9.58332C14.1608 9.81374 14.3471 9.99999 14.5775 9.99999Z" fill="#F28C03"/>
<path d="M13.12 12.9167C12.9396 12.9162 12.7642 12.8842 12.5983 12.8208C12.385 12.7396 12.1429 12.8467 12.0604 13.0617C11.9788 13.2767 12.0867 13.5175 12.3013 13.5996C12.5621 13.6987 12.8367 13.7496 13.1192 13.75H13.2679C13.4983 13.75 13.6846 13.5637 13.6846 13.3333C13.6846 13.1029 13.4983 12.9167 13.2679 12.9167H13.12Z" fill="#F28C03"/>
<path d="M12.1308 10.2817C12.2063 10.2817 12.2821 10.2613 12.3508 10.2188C12.5354 10.1038 12.7396 10.0334 12.9567 10.0092C13.1854 9.98377 13.3504 9.77794 13.3254 9.54919C13.3004 9.32044 13.0958 9.15711 12.8654 9.18044C12.5229 9.21836 12.2013 9.32919 11.9096 9.51127C11.7142 9.63294 11.655 9.89002 11.7767 10.0854C11.8558 10.2121 11.9917 10.2817 12.1308 10.2817Z" fill="#F28C03"/>
<path d="M14.7858 16.6667C14.75 16.6667 14.7146 16.6675 14.6792 16.6692C14.4492 16.6783 14.2708 16.8725 14.28 17.1025C14.2888 17.3267 14.4738 17.5021 14.6958 17.5021C14.7017 17.5021 14.7075 17.5021 14.7133 17.5017L15.5296 17.5C15.76 17.5 15.9463 17.3137 15.9463 17.0833C15.9463 16.8529 15.76 16.6667 15.5296 16.6667H14.7858Z" fill="#F28C03"/>
<path d="M17.9108 9.99999C18.1412 9.99999 18.3275 9.81374 18.3275 9.58332C18.3275 9.35291 18.1412 9.16666 17.9108 9.16666H17.0775C16.8471 9.16666 16.6608 9.35291 16.6608 9.58332C16.6608 9.81374 16.8471 9.99999 17.0775 9.99999H17.9108Z" fill="#F28C03"/>
<path d="M19.6962 16.6667C19.4658 16.6667 19.2796 16.8529 19.2796 17.0833C19.2796 17.3137 19.4658 17.5 19.6962 17.5H20.5296C20.76 17.5 20.9462 17.3137 20.9462 17.0833C20.9462 16.8529 20.76 16.6667 20.5296 16.6667H19.6962Z" fill="#F28C03"/>
<path d="M21.185 13.3333C21.185 13.1029 20.9988 12.9167 20.7683 12.9167H19.935C19.7046 12.9167 19.5183 13.1029 19.5183 13.3333C19.5183 13.5637 19.7046 13.75 19.935 13.75H20.7683C20.9983 13.75 21.185 13.5637 21.185 13.3333Z" fill="#F28C03"/>
<path d="M17.1962 17.5H18.0296C18.26 17.5 18.4462 17.3137 18.4462 17.0833C18.4462 16.8529 18.26 16.6667 18.0296 16.6667H17.1962C16.9658 16.6667 16.7796 16.8529 16.7796 17.0833C16.7796 17.3137 16.9662 17.5 17.1962 17.5Z" fill="#F28C03"/>
<path d="M18.685 13.3333C18.685 13.1029 18.4988 12.9167 18.2683 12.9167H17.435C17.2046 12.9167 17.0183 13.1029 17.0183 13.3333C17.0183 13.5637 17.2046 13.75 17.435 13.75H18.2683C18.4983 13.75 18.685 13.5637 18.685 13.3333Z" fill="#F28C03"/>
<path d="M14.935 12.9167C14.7046 12.9167 14.5183 13.1029 14.5183 13.3333C14.5183 13.5637 14.7046 13.75 14.935 13.75H15.7683C15.9988 13.75 16.185 13.5637 16.185 13.3333C16.185 13.1029 15.9988 12.9167 15.7683 12.9167H14.935Z" fill="#F28C03"/>
<path d="M9.81543 24.1667H8.9821C8.75168 24.1667 8.56543 24.3529 8.56543 24.5833C8.56543 24.8137 8.75168 25 8.9821 25H9.81543C10.0458 25 10.2321 24.8137 10.2321 24.5833C10.2321 24.3529 10.0454 24.1667 9.81543 24.1667Z" fill="#F28C03"/>
<path d="M7.31543 24.1667H6.4821C6.25168 24.1667 6.06543 24.3529 6.06543 24.5833C6.06543 24.8137 6.25168 25 6.4821 25H7.31543C7.54585 25 7.7321 24.8137 7.7321 24.5833C7.7321 24.3529 7.54543 24.1667 7.31543 24.1667Z" fill="#F28C03"/>
<path d="M21.7071 22.7154C21.4825 22.665 21.2596 22.8058 21.2092 23.0304C21.1613 23.2429 21.0684 23.4383 20.9329 23.6104C20.7909 23.7912 20.8217 24.0533 21.0029 24.1954C21.0796 24.2554 21.17 24.2846 21.26 24.2846C21.3838 24.2846 21.5059 24.23 21.5879 24.1254C21.7979 23.8587 21.9479 23.5437 22.0221 23.2137C22.0725 22.9887 21.9317 22.7658 21.7071 22.7154Z" fill="#F28C03"/>
<path d="M21.26 21.9663C21.35 21.9663 21.4412 21.9371 21.5171 21.8771C21.6983 21.7346 21.7292 21.4725 21.5871 21.2921C21.3775 21.0258 21.1071 20.8058 20.8042 20.6554C20.5971 20.5525 20.3479 20.6371 20.2454 20.8429C20.1429 21.0492 20.2271 21.2992 20.4329 21.4017C20.6258 21.4971 20.7983 21.6375 20.9317 21.8075C21.0142 21.9117 21.1362 21.9663 21.26 21.9663Z" fill="#F28C03"/>
<path d="M19.3991 20.8333C19.3991 20.6029 19.2129 20.4167 18.9825 20.4167H18.1491C17.9187 20.4167 17.7325 20.6029 17.7325 20.8333C17.7325 21.0637 17.9187 21.25 18.1491 21.25H18.9825C19.2125 21.25 19.3991 21.0637 19.3991 20.8333Z" fill="#F28C03"/>
<path d="M19.7858 24.1667H18.9817C18.7513 24.1667 18.565 24.3529 18.565 24.5833C18.565 24.8137 18.7513 25 18.9817 25L19.8029 24.9996L19.815 24.5829V24.9996C20.0454 24.9996 20.2171 24.8133 20.2171 24.5829C20.2171 24.3529 20.0163 24.1667 19.7858 24.1667Z" fill="#F28C03"/>
<path d="M24.5496 14.8467C24.5129 14.6192 24.2983 14.4637 24.0721 14.5012C23.8446 14.5375 23.69 14.7517 23.7267 14.9787C23.7383 15.0529 23.745 15.1283 23.7442 15.2087C23.7442 15.3487 23.7242 15.4871 23.685 15.6204C23.6204 15.8412 23.7467 16.0729 23.9679 16.1375C24.0071 16.1487 24.0463 16.1542 24.085 16.1542C24.2654 16.1542 24.4317 16.0367 24.485 15.8546C24.5463 15.645 24.5775 15.4279 24.5775 15.2117C24.5783 15.0917 24.5692 14.9687 24.5496 14.8467Z" fill="#F28C03"/>
<path d="M11.4675 12.4396C11.6858 12.3675 11.805 12.1321 11.7333 11.9133C11.6854 11.7671 11.6608 11.6142 11.6608 11.46C11.6612 11.3971 11.665 11.3342 11.6725 11.2729C11.7012 11.0446 11.5396 10.8358 11.3112 10.8075C11.0758 10.7813 10.8742 10.9413 10.8458 11.1688C10.8342 11.2629 10.8279 11.3588 10.8275 11.4579C10.8275 11.7029 10.8658 11.9438 10.9412 12.1738C10.9992 12.3492 11.1621 12.4604 11.3371 12.4604C11.3804 12.4604 11.4246 12.4542 11.4675 12.4396Z" fill="#F28C03"/>
<path d="M23.4329 13.2242C23.1354 13.0517 22.8104 12.9504 22.4675 12.9233C22.2387 12.9067 22.0375 13.0763 22.0196 13.3063C22.0017 13.5358 22.1729 13.7363 22.4025 13.7542C22.62 13.7713 22.8262 13.8354 23.015 13.945C23.0808 13.9833 23.1529 14.0013 23.2237 14.0013C23.3675 14.0013 23.5075 13.9267 23.5846 13.7938C23.7 13.595 23.6321 13.34 23.4329 13.2242Z" fill="#F28C03"/>
<path d="M22.8492 16.5538C22.6704 16.6288 22.4812 16.6667 22.2858 16.6667H22.1962C21.9658 16.6667 21.7796 16.8529 21.7796 17.0833C21.7796 17.3138 21.9658 17.5 22.1962 17.5H22.2858C22.5925 17.5 22.8904 17.44 23.1712 17.3221C23.3837 17.2329 23.4833 16.9888 23.3942 16.7767C23.3054 16.5646 23.0596 16.4646 22.8492 16.5538Z" fill="#F28C03"/>
<path d="M13.3534 18.6829C13.3946 18.4687 13.4813 18.2708 13.6113 18.0942C13.7475 17.9092 13.7079 17.6483 13.5225 17.5117C13.3371 17.3758 13.0767 17.415 12.94 17.6004C12.7363 17.8779 12.5996 18.1892 12.5346 18.5262C12.4913 18.7521 12.6392 18.9704 12.8654 19.0142C12.8917 19.0192 12.9184 19.0217 12.9442 19.0217C13.14 19.0208 13.3146 18.8821 13.3534 18.6829Z" fill="#F28C03"/>
<path d="M14.0062 21.0808C14.1646 21.0808 14.3154 20.9904 14.3854 20.8375C14.4808 20.6279 14.3891 20.3808 14.18 20.2854C13.9846 20.1958 13.8075 20.0612 13.6683 19.8954C13.52 19.7192 13.2575 19.6962 13.0812 19.8446C12.905 19.9925 12.8821 20.2554 13.0304 20.4317C13.2487 20.6912 13.5262 20.9029 13.8333 21.0429C13.8896 21.0683 13.9483 21.0808 14.0062 21.0808Z" fill="#F28C03"/>
<path d="M12.3154 24.1667H11.4821C11.2517 24.1667 11.0654 24.3529 11.0654 24.5833C11.0654 24.8137 11.2517 25 11.4821 25H12.3154C12.5458 25 12.7321 24.8137 12.7321 24.5833C12.7321 24.3529 12.5454 24.1667 12.3154 24.1667Z" fill="#F28C03"/>
<path d="M14.8154 24.1667H13.9821C13.7517 24.1667 13.5654 24.3529 13.5654 24.5833C13.5654 24.8137 13.7517 25 13.9821 25H14.8154C15.0458 25 15.2321 24.8137 15.2321 24.5833C15.2321 24.3529 15.0454 24.1667 14.8154 24.1667Z" fill="#F28C03"/>
<path d="M16.8991 20.8333C16.8991 20.6029 16.7129 20.4167 16.4825 20.4167H15.6491C15.4187 20.4167 15.2325 20.6029 15.2325 20.8333C15.2325 21.0637 15.4187 21.25 15.6491 21.25H16.4825C16.7125 21.25 16.8991 21.0637 16.8991 20.8333Z" fill="#F28C03"/>
<path d="M17.3154 24.1667H16.4821C16.2517 24.1667 16.0654 24.3529 16.0654 24.5833C16.0654 24.8137 16.2517 25 16.4821 25H17.3154C17.5458 25 17.7321 24.8137 17.7321 24.5833C17.7321 24.3529 17.5454 24.1667 17.3154 24.1667Z" fill="#F28C03"/>
<path d="M8.5475 12.0737C7.60125 11.005 6.33958 10.4167 4.99417 10.4167C3.64875 10.4167 2.38708 11.005 1.44125 12.0737C-0.480417 14.245 -0.480417 17.7771 1.44125 19.9483L4.99417 23.9621L8.54708 19.9483C10.4692 17.7771 10.4692 14.245 8.5475 12.0737ZM4.99417 17.9167C3.61542 17.9167 2.49417 16.7954 2.49417 15.4167C2.49417 14.0379 3.61542 12.9167 4.99417 12.9167C6.37292 12.9167 7.49417 14.0379 7.49417 15.4167C7.49417 16.7954 6.37292 17.9167 4.99417 17.9167Z" fill="#F28C03"/>
<path d="M20.1 10.2113L22.7933 7.17542C24.2425 5.54208 24.2425 2.88542 22.7933 1.25208C22.0766 0.444583 21.12 0 20.0996 0C19.0796 0 18.1229 0.444583 17.4062 1.25208C15.9575 2.88542 15.9575 5.54208 17.4062 7.17542L20.1 10.2113ZM20.2025 1.66667C21.4658 1.66667 22.4942 2.695 22.4942 3.95833C22.4942 5.22167 21.4658 6.25 20.2025 6.25C18.9392 6.25 17.9108 5.22167 17.9108 3.95833C17.9108 2.695 18.9392 1.66667 20.2025 1.66667Z" fill="#F28C03"/>
</svg>
