<svg width="15" height="15" viewBox="0 0 15 15" fill="none" xmlns="http://www.w3.org/2000/svg">
<path d="M3.56496 8.61981C3.56496 7.84274 3.8214 7.12522 4.25286 6.54519C3.80104 6.1391 3.20567 5.88995 2.55059 5.88995C1.14198 5.88995 0 7.03209 0 8.44054C0 8.44054 0.600085 13.7997 2.55059 13.7997C3.30442 13.7997 3.85589 12.9985 4.24967 12.0163C3.79011 10.5042 3.60431 8.9949 3.56785 8.67009L3.56496 8.61981Z" fill="#2D343A"/>
<path d="M2.55059 5.70521C3.40392 5.70521 4.14621 5.23046 4.52859 4.53102C4.14681 4.01251 3.92 3.37354 3.92 2.68169C3.92 2.36782 3.96755 2.0649 4.05399 1.77883C3.6552 1.4206 3.1291 1.20032 2.55059 1.20032C1.30666 1.20032 0.298218 2.20892 0.298218 3.45284C0.298218 4.69661 1.30666 5.70521 2.55059 5.70521Z" fill="#2D343A"/>
<path d="M11.5528 5.88995C10.8977 5.88995 10.3025 6.1391 9.85052 6.54519C10.2823 7.12522 10.5384 7.84274 10.5384 8.61981L10.5355 8.66994C10.4991 8.99505 10.3133 10.5041 9.85371 12.0161C10.2475 12.9983 10.799 13.7995 11.5528 13.7995C13.5033 13.7995 14.1034 8.44039 14.1034 8.44039C14.1034 7.03209 12.9614 5.88995 11.5528 5.88995Z" fill="#2D343A"/>
<path d="M9.57495 4.53089C9.95733 5.23034 10.6993 5.70509 11.553 5.70509C12.7969 5.70509 13.8053 4.69649 13.8053 3.45272C13.8053 2.20879 12.7967 1.2002 11.553 1.2002C10.9743 1.2002 10.4483 1.42033 10.0496 1.77871C10.1358 2.06493 10.1837 2.3677 10.1837 2.68157C10.1834 3.37341 9.95657 4.01239 9.57495 4.53089Z" fill="#2D343A"/>
<path d="M7.05172 5.58322C5.37467 5.58322 4.01514 6.94276 4.01514 8.6198C4.01514 8.6198 4.72977 15 7.05172 15C9.37367 15 10.0882 8.6198 10.0882 8.6198C10.0882 6.94276 8.72877 5.58322 7.05172 5.58322Z" fill="#2D343A"/>
<path d="M7.05166 5.36309C8.53264 5.36309 9.73321 4.16252 9.73321 2.68154C9.73321 1.20057 8.53264 0 7.05166 0C5.57069 0 4.37012 1.20057 4.37012 2.68154C4.37012 4.16252 5.57069 5.36309 7.05166 5.36309Z" fill="#2D343A"/>
</svg>
