<svg width="19" height="15" viewBox="0 0 19 15" fill="none" xmlns="http://www.w3.org/2000/svg">
<path d="M16.0368 15H2.96325C1.93638 14.9999 0.982729 14.5802 0.442666 13.8905C-0.0972514 13.201 -0.146453 12.3399 0.312571 11.6148L6.84874 1.29406C7.35046 0.501036 8.37704 0 9.5 0C10.623 0 11.6495 0.501036 12.1513 1.29406L18.6874 11.6148C19.1465 12.3399 19.0973 13.201 18.5573 13.8905C18.0174 14.5802 17.0636 14.9999 16.0368 15V15Z" fill="#2D343A"/>
<path d="M9.49996 3.74921C9.8273 3.74921 10.0927 3.95871 10.0927 4.21711V9.832C10.0927 10.0904 9.8273 10.2999 9.49996 10.2999C9.17263 10.2999 8.90723 10.0904 8.90723 9.832V4.21711C8.90723 3.95871 9.17263 3.74921 9.49996 3.74921Z" fill="white"/>
<path d="M8.90723 11.2357H10.0927V12.1715H8.90723V11.2357Z" fill="white"/>
</svg>
