<svg width="18" height="15" viewBox="0 0 18 15" fill="none" xmlns="http://www.w3.org/2000/svg">
<path d="M10.7544 4.74868L8.5097 3.73431L6.36661 4.74585L6.8132 6.69257C7.07547 7.61813 8.0009 8.42508 8.54641 8.80826C9.00977 8.50236 9.99508 7.74531 10.2628 6.69273L10.7544 4.74868ZM9.14001 6.09873L9.211 6.82021L8.54684 6.52985L7.88268 6.82047L7.95354 6.0989L7.4719 5.55692L8.18006 5.40142L8.54664 4.77604L8.91335 5.40132L9.62138 5.55665L9.14001 6.09873Z" fill="#2D343A"/>
<path d="M16.922 4.51884C16.7115 3.8659 16.2343 3.32488 15.6128 3.03445L9.61792 0.23333C8.95921 -0.0744704 8.20203 -0.0778985 7.54063 0.223978L1.44875 3.00403C0.803064 3.29869 0.314138 3.85711 0.107351 4.53605C-0.0994355 5.21502 -0.00474558 5.95117 0.36779 6.55692L1.31303 8.08421L6.39889 8.08404C6.16241 7.74455 5.96318 7.36393 5.84806 6.94946L5.8425 6.92749L5.21355 4.18584L8.50054 2.63439L11.9275 4.18302L11.2308 6.93828C11.1226 7.36366 10.9347 7.74652 10.7094 8.08397L15.8338 8.08374L16.7262 6.48842C17.0611 5.88963 17.1325 5.17175 16.922 4.51884Z" fill="#2D343A"/>
<path d="M8.52531 9.97142C8.52531 9.97142 7.80114 9.53855 7.29438 9.0826L1.6908 9.0828V10.4425L15.4895 10.4421L15.4759 9.08234L9.82647 9.0826C9.29298 9.55672 8.52531 9.97142 8.52531 9.97142Z" fill="#2D343A"/>
<path d="M8.59199 15C11.5056 15 14.1214 13.5864 15.2603 11.4407L1.92389 11.4411C3.06286 13.5865 5.67867 15 8.59199 15Z" fill="#2D343A"/>
</svg>
