<svg width="20" height="24" viewBox="0 0 20 24" fill="none" xmlns="http://www.w3.org/2000/svg">
<path d="M19.3602 10.1225L10.7263 1.48734C10.2171 0.979393 9.39338 0.985403 8.89083 1.4867C8.38543 1.99339 8.38543 2.81611 8.89083 3.32216L17.526 11.9568C18.0319 12.4626 18.8543 12.4626 19.3602 11.9568C19.8675 11.4495 19.8675 10.6297 19.3602 10.1225Z" fill="white"/>
<path d="M8.25028 4.51584L8.18529 4.84159C7.72754 7.13134 6.61505 9.30665 5.11035 11.0697L9.80794 15.7673C11.5708 14.2629 13.7162 13.1206 16.006 12.6622L16.3323 12.5973L8.25028 4.51584Z" fill="white"/>
<path d="M4.24913 12.0428L1.03864 15.2526C0.280041 16.0112 0.276885 17.2428 1.03864 18.0045L2.87285 19.8387C3.63144 20.5973 4.86301 20.6004 5.62476 19.8387L8.83495 16.6285L4.24913 12.0428ZM4.7077 17.0875C4.45438 17.3408 4.04393 17.3408 3.7906 17.0875C3.53727 16.8341 3.53727 16.4237 3.7906 16.1704L4.7077 15.2532C4.96103 14.9999 5.37148 14.9999 5.62481 15.2532C5.87813 15.5066 5.87813 15.917 5.62481 16.1704L4.7077 17.0875Z" fill="white"/>
<path d="M11.5429 20.1838L12.4251 19.3016C13.1869 18.5399 13.1844 17.3083 12.4252 16.5504L11.7699 15.8946C11.4077 16.1379 11.0618 16.4022 10.7255 16.6843L11.5081 17.4681C11.7608 17.7195 11.7626 18.1287 11.5081 18.3845L10.6112 19.2813L9.29328 18.0044L7.45898 19.8387L10.4016 22.6901C10.9037 23.1935 11.7282 23.1964 12.2351 22.6894C12.7412 22.1834 12.7412 21.3607 12.2351 20.8546L11.5429 20.1838Z" fill="white"/>
<path d="M14.163 0.931274C13.8045 0.931274 13.5144 1.22135 13.5144 1.57983V2.87695C13.5144 3.23543 13.8045 3.52551 14.163 3.52551C14.5214 3.52551 14.8115 3.23543 14.8115 2.87695V1.57983C14.8115 1.22135 14.5214 0.931274 14.163 0.931274Z" fill="white"/>
<path d="M19.3514 6.11974H18.0543C17.6958 6.11974 17.4058 6.40981 17.4058 6.76829C17.4058 7.12677 17.6958 7.41685 18.0543 7.41685H19.3514C19.7099 7.41685 20 7.12677 20 6.76829C20 6.40981 19.7099 6.11974 19.3514 6.11974Z" fill="white"/>
<path d="M18.5129 2.41839C18.2595 2.16506 17.8491 2.16506 17.5958 2.41839L16.2986 3.7155C16.0453 3.96883 16.0453 4.37928 16.2986 4.63261C16.552 4.88594 16.9624 4.88598 17.2157 4.63261L18.5129 3.33549C18.7662 3.08217 18.7662 2.67172 18.5129 2.41839Z" fill="white"/>
</svg>
