<svg width="197" height="173" viewBox="0 0 197 173" fill="none" xmlns="http://www.w3.org/2000/svg">
<path d="M7.55575 167.288C6.22775 167.288 4.93975 167.112 3.69175 166.76C2.45975 166.392 1.46775 165.92 0.715747 165.344L2.03575 162.416C2.75575 162.944 3.61175 163.368 4.60375 163.688C5.59575 164.008 6.58775 164.168 7.57975 164.168C8.68375 164.168 9.49975 164.008 10.0277 163.688C10.5557 163.352 10.8197 162.912 10.8197 162.368C10.8197 161.968 10.6597 161.64 10.3397 161.384C10.0357 161.112 9.63575 160.896 9.13975 160.736C8.65975 160.576 8.00375 160.4 7.17175 160.208C5.89175 159.904 4.84375 159.6 4.02775 159.296C3.21175 158.992 2.50775 158.504 1.91575 157.832C1.33975 157.16 1.05175 156.264 1.05175 155.144C1.05175 154.168 1.31575 153.288 1.84375 152.504C2.37175 151.704 3.16375 151.072 4.21975 150.608C5.29175 150.144 6.59575 149.912 8.13175 149.912C9.20375 149.912 10.2517 150.04 11.2757 150.296C12.2997 150.552 13.1957 150.92 13.9637 151.4L12.7637 154.352C11.2117 153.472 9.65975 153.032 8.10775 153.032C7.01975 153.032 6.21175 153.208 5.68375 153.56C5.17175 153.912 4.91575 154.376 4.91575 154.952C4.91575 155.528 5.21175 155.96 5.80375 156.248C6.41175 156.52 7.33175 156.792 8.56375 157.064C9.84375 157.368 10.8917 157.672 11.7077 157.976C12.5237 158.28 13.2197 158.76 13.7957 159.416C14.3877 160.072 14.6837 160.96 14.6837 162.08C14.6837 163.04 14.4117 163.92 13.8677 164.72C13.3397 165.504 12.5397 166.128 11.4677 166.592C10.3957 167.056 9.09175 167.288 7.55575 167.288ZM50.8684 163.88V167H37.8604V150.2H50.5564V153.32H41.7244V156.968H49.5244V159.992H41.7244V163.88H50.8684ZM85.7871 158.336H89.3391V165.152C88.4271 165.84 87.3711 166.368 86.1711 166.736C84.9711 167.104 83.7631 167.288 82.5471 167.288C80.8031 167.288 79.2351 166.92 77.8431 166.184C76.4511 165.432 75.3551 164.4 74.5551 163.088C73.7711 161.76 73.3791 160.264 73.3791 158.6C73.3791 156.936 73.7711 155.448 74.5551 154.136C75.3551 152.808 76.4591 151.776 77.8671 151.04C79.2751 150.288 80.8591 149.912 82.6191 149.912C84.0911 149.912 85.4271 150.16 86.6271 150.656C87.8271 151.152 88.8351 151.872 89.6511 152.816L87.1551 155.12C85.9551 153.856 84.5071 153.224 82.8111 153.224C81.7391 153.224 80.7871 153.448 79.9551 153.896C79.1231 154.344 78.4751 154.976 78.0111 155.792C77.5471 156.608 77.3151 157.544 77.3151 158.6C77.3151 159.64 77.5471 160.568 78.0111 161.384C78.4751 162.2 79.1151 162.84 79.9311 163.304C80.7631 163.752 81.7071 163.976 82.7631 163.976C83.8831 163.976 84.8911 163.736 85.7871 163.256V158.336ZM120.935 167.288C118.535 167.288 116.663 166.624 115.319 165.296C113.991 163.968 113.327 162.072 113.327 159.608V150.2H117.215V159.464C117.215 162.472 118.463 163.976 120.959 163.976C122.175 163.976 123.103 163.616 123.743 162.896C124.383 162.16 124.703 161.016 124.703 159.464V150.2H128.543V159.608C128.543 162.072 127.871 163.968 126.527 165.296C125.199 166.624 123.335 167.288 120.935 167.288ZM163.609 167L160.369 162.32H160.177H156.793V167H152.905V150.2H160.177C161.665 150.2 162.953 150.448 164.041 150.944C165.145 151.44 165.993 152.144 166.585 153.056C167.177 153.968 167.473 155.048 167.473 156.296C167.473 157.544 167.169 158.624 166.561 159.536C165.969 160.432 165.121 161.12 164.017 161.6L167.785 167H163.609ZM163.537 156.296C163.537 155.352 163.233 154.632 162.625 154.136C162.017 153.624 161.129 153.368 159.961 153.368H156.793V159.224H159.961C161.129 159.224 162.017 158.968 162.625 158.456C163.233 157.944 163.537 157.224 163.537 156.296ZM191.073 150.2H194.961V167H191.073V150.2Z" fill="white"/>
<path d="M141 16.0888V52.5118C126.948 20.5536 98.4529 18.3081 85.962 21.1802C83.2538 22.4153 81.2392 23.7417 79.7787 25.1024C71.9653 32.3824 85.9943 39.6915 96.6152 40.8069C129.663 44.2776 138.104 52.3392 137.877 56.4282C140.542 77.5911 125.605 94.3323 110.996 104.681C101.095 111.695 87.7655 112.078 78.0356 104.829C57.6747 89.6589 51.5388 67.455 51.2218 56.4282C55.9134 71.1922 69.0036 81.1949 80.5214 87.0102C88.9537 91.2676 98.8228 88.7905 105.99 82.6371C118.481 67.9112 94.2893 62.1723 80.1069 62.6945C65.2949 62.5582 57.0419 56.632 52.8196 48.7113C42.4932 29.3398 58.682 4.48233 80.3297 0.83949C103.761 -3.10349 128.448 7.66234 141 16.0888Z" fill="white"/>
</svg>
